<?xml version="1.0" standalone="no"?>
<svg xmlns="http://www.w3.org/2000/svg" version="1.2" overflow="visible" preserveAspectRatio="none" viewBox="0 0 24 24" width="32" height="32"><g><path xmlns:default="http://www.w3.org/2000/svg" id="paw" d="M11.48,7.59c0-0.54-0.11-1.08-0.31-1.59c-0.22-0.54-0.56-1.02-1-1.41C9.8,4.22,9.29,4.01,8.77,4  c-0.4-0.01-0.79,0.14-1.09,0.41c-0.3,0.27-0.53,0.61-0.66,1c-0.13,0.38-0.2,0.78-0.2,1.18c0.01,0.54,0.11,1.07,0.31,1.57  c0.22,0.54,0.56,1.02,1,1.41c0.38,0.38,0.9,0.6,1.44,0.6c0.4,0.01,0.79-0.14,1.09-0.41c0.3-0.27,0.53-0.61,0.66-1  c0.13-0.38,0.2-0.78,0.2-1.18l0,0L11.48,7.59z M7.55,11c-0.22-0.54-0.57-1.01-1-1.4C6.13,9.23,5.58,9.04,5.02,9.05  C4.53,9.03,4.06,9.26,3.78,9.67c-0.3,0.42-0.45,0.93-0.44,1.45c0.01,1.16,0.53,2.25,1.41,3c0.4,0.37,0.93,0.57,1.47,0.58  c0.49,0.02,0.96-0.21,1.24-0.61c0.3-0.42,0.45-0.93,0.44-1.45C7.9,12.08,7.78,11.52,7.55,11z M12.02,12.33  c-0.71,0.03-1.4,0.24-2,0.61c-0.74,0.41-1.41,0.92-2,1.52c-0.57,0.6-1.06,1.27-1.45,2c-0.35,0.61-0.55,1.3-0.58,2  C6.01,19.49,6.66,20,7.93,20c0.72-0.05,1.42-0.21,2.09-0.48c0.64-0.26,1.31-0.41,2-0.46c0.65,0.05,1.3,0.21,1.9,0.47  c0.63,0.27,1.31,0.43,2,0.47c0.26,0,0.53-0.02,0.79-0.06c0.23-0.04,0.46-0.11,0.67-0.21c0.21-0.1,0.39-0.26,0.5-0.47  c0.13-0.25,0.19-0.52,0.18-0.8c-0.07-0.96-0.41-1.88-1-2.65c-0.63-0.96-1.44-1.8-2.38-2.47c-0.76-0.6-1.68-0.95-2.65-1l0,0  L12.02,12.33z M14.51,10.13c0.54,0,1.06-0.22,1.44-0.6c0.44-0.39,0.78-0.87,1-1.41c0.2-0.5,0.3-1.03,0.31-1.57  c-0.01-0.4-0.09-0.8-0.24-1.18c-0.13-0.39-0.36-0.73-0.66-1c-0.3-0.26-0.69-0.39-1.09-0.37c-0.54,0-1.06,0.22-1.44,0.6  c-0.44,0.39-0.78,0.87-1,1.41c-0.2,0.5-0.31,1.04-0.31,1.58c0,0.4,0.07,0.8,0.2,1.18c0.13,0.39,0.36,0.73,0.66,1  c0.3,0.27,0.69,0.42,1.09,0.41l0,0L14.51,10.13z M17.51,9.63c-0.87,0.75-1.39,1.85-1.41,3c-0.01,0.52,0.14,1.03,0.44,1.45  c0.28,0.4,0.75,0.63,1.24,0.61c0.54-0.01,1.07-0.21,1.47-0.58c0.88-0.75,1.4-1.84,1.41-3c0.01-0.52-0.14-1.03-0.44-1.45  c-0.27-0.39-0.72-0.62-1.2-0.61c-0.55,0-1.08,0.21-1.49,0.58H17.51z" style="fill: rgb(255, 255, 255);"/></g></svg>