<?xml version="1.0" standalone="no"?>
<svg xmlns="http://www.w3.org/2000/svg" version="1.2" overflow="visible" preserveAspectRatio="none" viewBox="0 0 24 24" width="32" height="32"><g><path xmlns:default="http://www.w3.org/2000/svg" id="shopping-basket" d="M21.31,10.67H2.65c-0.35-0.01-0.69,0.14-0.94,0.39c-0.52,0.52-0.52,1.36,0,1.88  c0.25,0.25,0.59,0.4,0.94,0.39h0.16l1.17,6.9c0.12,0.63,0.67,1.1,1.31,1.1h13.35c0.66,0.01,1.22-0.45,1.34-1.1l1.2-6.89h0.16  c0.74,0,1.33-0.6,1.33-1.34s-0.6-1.34-1.33-1.34l0,0H21.31z M6.37,19H6.32c-0.35,0-0.64-0.26-0.67-0.61l-0.33-4.34  c0.01-0.37,0.31-0.66,0.68-0.66c0.32,0.01,0.59,0.24,0.65,0.56l0.33,4.33C7.01,18.64,6.74,18.96,6.37,19L6.37,19z M10.65,18.33  c-0.05,0.37-0.38,0.63-0.75,0.58c-0.31-0.04-0.55-0.28-0.58-0.58V14c0.05-0.37,0.38-0.63,0.75-0.58c0.31,0.04,0.55,0.28,0.58,0.58  V18.33L10.65,18.33z M14.65,18.33c-0.05,0.37-0.38,0.63-0.75,0.58c-0.31-0.04-0.55-0.28-0.58-0.58V14c0.05-0.37,0.38-0.63,0.75-0.58  c0.31,0.04,0.55,0.28,0.58,0.58V18.33L14.65,18.33z M18.31,18.38c-0.03,0.35-0.32,0.61-0.67,0.61h-0.05  c-0.36-0.04-0.63-0.35-0.61-0.71l0.33-4.33c0.06-0.36,0.41-0.61,0.77-0.55c0.32,0.05,0.55,0.33,0.56,0.65L18.31,18.38  C18.31,18.38,18.31,18.38,18.31,18.38z M6.27,5.71C6.35,5.43,6.52,5.18,6.75,5c0.23-0.21,0.52-0.32,0.83-0.33h1.73  c0.01,0.37,0.3,0.66,0.67,0.67h4c0.37-0.01,0.66-0.3,0.67-0.67h1.73c0.3,0,0.6,0.1,0.83,0.29c0.24,0.19,0.4,0.45,0.47,0.75l1,4.29  h1.3l-1-4.59c-0.12-0.59-0.45-1.12-0.93-1.49c-0.47-0.38-1.06-0.59-1.67-0.58h-1.73c-0.01-0.37-0.3-0.66-0.67-0.67h-4  c-0.37,0.01-0.66,0.3-0.67,0.67H7.58c-0.61-0.01-1.2,0.2-1.67,0.58C5.43,4.29,5.1,4.82,4.98,5.41l-1,4.59h1.33l1-4.29l0,0H6.27z" style="fill: rgb(255, 255, 255);"/></g></svg>