<?xml version="1.0" standalone="no"?>
<svg xmlns="http://www.w3.org/2000/svg" version="1.2" overflow="visible" preserveAspectRatio="none" viewBox="0 0 24 24" width="32" height="32"><g><path xmlns:default="http://www.w3.org/2000/svg" id="bus" d="M7.61,16.27c-0.52,0.52-1.36,0.52-1.88,0c-0.52-0.52-0.52-1.36,0-1.88C5.98,14.14,6.32,14,6.67,14  C7.4,14,8,14.59,8,15.33C8,15.68,7.86,16.02,7.61,16.27z M18.27,16.27c-0.52,0.52-1.36,0.52-1.88,0c-0.52-0.52-0.52-1.36,0-1.88  s1.36-0.52,1.88,0c0.25,0.25,0.39,0.59,0.39,0.94C18.67,15.68,18.52,16.02,18.27,16.27z M18.18,11.2c0.04,0.2-0.02,0.4-0.15,0.55  c-0.12,0.16-0.31,0.24-0.51,0.24H6.47c-0.18,0-0.35-0.09-0.47-0.23c-0.13-0.15-0.19-0.35-0.15-0.55l0.75-4  c0.02-0.15,0.09-0.29,0.2-0.39c0.12-0.1,0.27-0.15,0.42-0.15h9.56c0.15,0,0.3,0.05,0.42,0.15c0.12,0.1,0.2,0.24,0.23,0.39  L18.18,11.2L18.18,11.2L18.18,11.2z M15.68,5.2c-0.09,0.1-0.22,0.15-0.35,0.15H8.67c-0.28,0-0.5-0.22-0.5-0.5s0.22-0.5,0.5-0.5h6.66  c0.28,0,0.5,0.23,0.49,0.51c0,0.12-0.05,0.24-0.13,0.33L15.68,5.2z M20,12.39c0.01-0.78-0.07-1.56-0.24-2.32l-1.1-4.73  c-0.1-0.6-0.47-1.13-1-1.43C16.92,3.46,16.1,3.15,15.25,3C14.18,2.77,13.09,2.66,12,2.67c-1.09,0-2.18,0.11-3.25,0.33  C7.9,3.15,7.09,3.47,6.36,3.93c-0.53,0.3-0.9,0.83-1,1.43l-1.1,4.7C4.09,10.82,4,11.6,4,12.39v6.28h1.34V20  c0,0.73,0.6,1.33,1.33,1.33S8,20.73,8,20v-1.34h8V20c0,0.74,0.6,1.34,1.34,1.34c0.74,0,1.34-0.6,1.34-1.34l0,0v-1.34H20V12.39  L20,12.39z" style="fill: rgb(255, 255, 255);"/></g></svg>