<?xml version="1.0" standalone="no"?>
<svg xmlns="http://www.w3.org/2000/svg" version="1.2" overflow="visible" preserveAspectRatio="none" viewBox="0 0 24 24" width="32" height="32"><g><path xmlns:default="http://www.w3.org/2000/svg" id="microchip" d="M6,16.66H4.84c-0.08-0.01-0.16,0.04-0.17,0.13c0,0.01,0,0.03,0,0.04V17h-0.5C4.09,16.99,4.01,17.04,4,17.13  c0,0.01,0,0.03,0,0.04v0.33c-0.01,0.08,0.04,0.16,0.13,0.17c0.01,0,0.03,0,0.04,0h0.5v0.17C4.66,17.92,4.71,18,4.8,18.01  c0.01,0,0.03,0,0.04,0H6V16.66L6,16.66z M6,14H4.84c-0.08-0.01-0.16,0.04-0.17,0.13c0,0.01,0,0.03,0,0.04v0.17h-0.5  C4.09,14.33,4.01,14.39,4,14.47c0,0.01,0,0.02,0,0.03v0.33C3.99,14.91,4.04,14.99,4.13,15c0.01,0,0.03,0,0.04,0h0.5v0.17  c-0.01,0.08,0.04,0.16,0.13,0.17c0.01,0,0.03,0,0.04,0H6V14L6,14z M6,11.33H4.84c-0.08-0.01-0.16,0.04-0.17,0.13  c0,0.01,0,0.03,0,0.04v0.17h-0.5C4.09,11.66,4.01,11.71,4,11.8c0,0.01,0,0.03,0,0.04v0.33c-0.01,0.08,0.04,0.16,0.13,0.17  c0.01,0,0.03,0,0.04,0h0.5v0.16c-0.01,0.08,0.04,0.16,0.13,0.17c0.01,0,0.03,0,0.04,0H6V11.33L6,11.33z M6,8.67H4.84  C4.76,8.66,4.68,8.71,4.67,8.8c0,0.01,0,0.03,0,0.04V9h-0.5C4.09,8.99,4.01,9.04,4,9.13c0,0.01,0,0.03,0,0.04V9.5  C3.99,9.58,4.04,9.66,4.13,9.67c0.01,0,0.03,0,0.04,0h0.5v0.16C4.66,9.91,4.71,9.99,4.8,10c0.01,0,0.03,0,0.04,0H6V8.67L6,8.67z   M6,6H4.84C4.76,5.99,4.68,6.04,4.67,6.13c0,0.01,0,0.03,0,0.04v0.17h-0.5C4.09,6.33,4.01,6.39,4,6.47C4,6.48,4,6.49,4,6.5v0.34  C3.99,6.92,4.06,6.99,4.14,7c0.01,0,0.02,0,0.03,0h0.5v0.17C4.66,7.25,4.71,7.33,4.8,7.34c0.01,0,0.03,0,0.04,0H6V6L6,6z M17,3.63  c-0.19-0.19-0.44-0.29-0.71-0.29H7.67c-0.55,0-1,0.45-1,1v15.32c0,0.55,0.45,1,1,1h8.66c0.55,0,1-0.45,1-1V4.34  C17.32,4.07,17.2,3.81,17,3.63z M20,17.16c0.01-0.08-0.06-0.15-0.14-0.16c-0.01,0-0.02,0-0.03,0h-0.5v-0.17  c0.01-0.08-0.04-0.16-0.13-0.17c-0.01,0-0.03,0-0.04,0H18V18h1.17c0.08,0.01,0.16-0.04,0.17-0.13c0-0.01,0-0.03,0-0.04v-0.17h0.5  c0.08,0.01,0.15-0.06,0.16-0.14c0-0.01,0-0.01,0-0.02V17.16L20,17.16z M20,14.49c0.01-0.08-0.04-0.16-0.13-0.17  c-0.01,0-0.03,0-0.04,0h-0.5v-0.15c0.01-0.08-0.04-0.16-0.13-0.17c-0.01,0-0.03,0-0.04,0H18v1.33h1.17  c0.08,0.01,0.16-0.04,0.17-0.13c0-0.01,0-0.03,0-0.04V15h0.5c0.08,0.01,0.15-0.06,0.16-0.14c0-0.01,0-0.02,0-0.03V14.5l0,0V14.49z   M20,11.82c0.01-0.08-0.04-0.16-0.13-0.17c-0.01,0-0.03,0-0.04,0h-0.5V11.5c0.01-0.08-0.04-0.16-0.13-0.17c-0.01,0-0.03,0-0.04,0H18  v1.33h1.17c0.08,0.01,0.16-0.04,0.17-0.13c0-0.01,0-0.03,0-0.04v-0.16h0.5c0.08,0.01,0.15-0.06,0.16-0.14c0-0.01,0-0.01,0-0.02  v-0.34l0,0V11.82z M20,9.15C20,9.07,19.93,9,19.85,9c-0.01,0-0.01,0-0.02,0h-0.5V8.83c0.01-0.08-0.04-0.16-0.13-0.17  c-0.01,0-0.03,0-0.04,0H18V10h1.17c0.08,0.01,0.16-0.04,0.17-0.13c0-0.01,0-0.03,0-0.04V9.67h0.5c0.08,0.01,0.15-0.06,0.16-0.14  c0-0.01,0-0.02,0-0.03V9.17l0,0V9.15z M20,6.5c0.01-0.08-0.04-0.16-0.13-0.17c-0.01,0-0.03,0-0.04,0h-0.5V6.17  C19.34,6.09,19.29,6.01,19.2,6c-0.01,0-0.03,0-0.04,0H18v1.34h1.17c0.08,0.01,0.16-0.04,0.17-0.13c0-0.01,0-0.03,0-0.04V7h0.5  c0.08,0.01,0.15-0.06,0.16-0.14c0-0.01,0-0.01,0-0.02V6.5L20,6.5z" style="fill: rgb(255, 255, 255);"/></g></svg>