<?xml version="1.0" standalone="no"?>
<svg xmlns="http://www.w3.org/2000/svg" version="1.2" overflow="visible" preserveAspectRatio="none" viewBox="0 0 24 24" width="32" height="32"><g><path xmlns:default="http://www.w3.org/2000/svg" id="wifi" d="M11.97,19.26c0.39-0.17,0.74-0.43,1-0.77c0.33-0.27,0.59-0.61,0.76-1c-0.11-0.28-0.38-0.48-0.68-0.49  c-0.34-0.15-0.71-0.24-1.08-0.27c-0.37,0.02-0.73,0.09-1.08,0.23c-0.31,0.03-0.57,0.26-0.65,0.56c0.17,0.39,0.43,0.73,0.76,1  c0.26,0.34,0.61,0.6,1,0.77l0,0L11.97,19.26z M14.78,16.44c0.39-0.18,0.73-0.45,1-0.78c0.34-0.27,0.61-0.61,0.79-1  c0-0.09-0.04-0.18-0.1-0.24c-0.57-0.56-1.25-0.98-2-1.26c-1.56-0.61-3.29-0.61-4.85,0c-0.75,0.28-1.43,0.7-2,1.26  c-0.06,0.06-0.1,0.15-0.1,0.24c0.18,0.39,0.45,0.73,0.79,1c0.27,0.33,0.61,0.6,1,0.78c0.15-0.07,0.29-0.16,0.42-0.26  c0.33-0.21,0.68-0.38,1.05-0.52c0.86-0.35,1.82-0.35,2.68,0c0.37,0.14,0.73,0.31,1.06,0.52l0.42,0.26l0,0H14.78z M17.62,13.61  c0.39-0.18,0.73-0.45,1-0.78c0.33-0.27,0.6-0.61,0.78-1c0-0.09-0.04-0.17-0.1-0.23c-0.95-0.92-2.09-1.64-3.33-2.1  c-2.57-1.04-5.43-1.04-8,0c-1.25,0.47-2.38,1.19-3.33,2.13c-0.06,0.06-0.1,0.14-0.1,0.23c0.18,0.39,0.45,0.73,0.78,1  c0.27,0.33,0.61,0.6,1,0.78l0.32-0.23c0.2-0.15,0.47-0.34,0.82-0.55c0.38-0.24,0.78-0.45,1.18-0.65c0.5-0.23,1.02-0.42,1.55-0.55  c0.58-0.16,1.18-0.25,1.78-0.26c0.96-0.02,1.9,0.16,2.79,0.52c0.94,0.43,1.82,0.97,2.62,1.61C17.45,13.58,17.53,13.61,17.62,13.61  C17.62,13.61,17.62,13.61,17.62,13.61z M20.44,10.79c0.39-0.19,0.73-0.45,1-0.78c0.34-0.27,0.61-0.61,0.79-1  c0-0.09-0.04-0.18-0.1-0.24c-1.32-1.31-2.9-2.33-4.63-3c-3.53-1.42-7.47-1.42-11,0c-1.73,0.67-3.31,1.69-4.63,3  c-0.06,0.06-0.1,0.15-0.1,0.24c0.18,0.39,0.45,0.73,0.79,1c0.27,0.33,0.61,0.59,1,0.78c0.08,0,0.17-0.03,0.23-0.09  c1.12-1.02,2.41-1.86,3.8-2.47c1.39-0.56,2.88-0.85,4.38-0.83c1.5-0.02,2.99,0.27,4.38,0.83c1.42,0.6,2.72,1.43,3.87,2.46  c0.06,0.06,0.15,0.09,0.23,0.09l0,0L20.44,10.79z" style="fill: rgb(255, 255, 255);"/></g></svg>