<?xml version="1.0" standalone="no"?>
<svg xmlns="http://www.w3.org/2000/svg" version="1.2" overflow="visible" preserveAspectRatio="none" viewBox="0 0 24 24" width="32" height="32"><g><path xmlns:default="http://www.w3.org/2000/svg" id="university" d="M2,6.67V8h1.34c0,0.18,0.08,0.35,0.21,0.47c0.13,0.13,0.31,0.2,0.5,0.2h15.89c0.19,0,0.37-0.07,0.5-0.2  c0.14-0.12,0.22-0.29,0.22-0.47H22V6.67l-10-4L2,6.67z M4.67,9.33v8H4.06c-0.19,0-0.37,0.07-0.5,0.2C3.43,17.65,3.35,17.82,3.35,18  v0.67h17.31V18c0-0.18-0.08-0.35-0.21-0.47c-0.13-0.13-0.31-0.2-0.5-0.2h-0.62v-8h-2.67v8h-1.33v-8h-2.66v8h-1.34v-8H8.67v8H7.34v-8  H4.67z M21.28,19.33H2.72c-0.19,0-0.37,0.07-0.5,0.2C2.08,19.65,2,19.82,2,20v1.33h20V20c0-0.18-0.08-0.35-0.21-0.47  c-0.13-0.13-0.31-0.2-0.5-0.2l0,0H21.28z" style="fill: rgb(255, 255, 255);"/></g></svg>