<?xml version="1.0" standalone="no"?>
<svg xmlns="http://www.w3.org/2000/svg" version="1.2" overflow="visible" preserveAspectRatio="none" viewBox="0 0 24 24" width="32" height="32"><g><path xmlns:default="http://www.w3.org/2000/svg" id="futbol-o" d="M10.15,14.64h3.7l1.14-3.5l-3-2.17l-3,2.17L10.15,14.64z M8.37,3.38c-2.27,0.93-4.07,2.73-5,5  c-0.99,2.32-0.99,4.93,0,7.25c0.93,2.27,2.73,4.07,5,5c2.32,0.99,4.93,0.99,7.25,0c2.27-0.93,4.07-2.73,5-5  c0.99-2.32,0.99-4.93,0-7.25c-0.93-2.27-2.73-4.07-5-5C13.31,2.39,10.69,2.39,8.37,3.38z M18.13,15.31l-3.39,0.42l-1.45,3.1  l1.21,0.72c-1.62,0.54-3.38,0.54-5,0l1.21-0.72l-1.45-3.1l-3.39-0.42l-0.32,1.38c-1.02-1.36-1.57-3.03-1.56-4.73l0,0l1.07,0.9  l2.5-2.33L6.91,7.16L5.5,7.28C6.5,5.89,7.92,4.86,9.55,4.35L8.99,5.64l3,1.66l3-1.66l-0.56-1.29c1.63,0.51,3.06,1.54,4.05,2.94  l-1.4-0.12l-0.66,3.36l2.5,2.33l1.07-0.9l0,0c0.01,1.7-0.53,3.36-1.55,4.73L18.13,15.31z" style="fill: rgb(255, 255, 255);"/></g></svg>