<?xml version="1.0" standalone="no"?>
<svg xmlns="http://www.w3.org/2000/svg" version="1.2" overflow="visible" preserveAspectRatio="none" viewBox="0 -0.5039292730844807 57 57" width="48" height="48"><g>
	<g>
		<path d="M43.6,37.6l12.1-5.2l-36.9-14l14,36.9L38,43.3l13.4,13.4L57,51L43.6,37.6z M37.3,39.8L32.9,50L22.2,21.9l28.2,10.6    L40.1,37L54.2,51l-2.8,2.8L37.3,39.8z M20,38c-9.9,0-18-8.1-18-18S10.1,2,20,2s18,8.1,18,18h2C40,9,31,0,20,0S0,9,0,20    c0,11,9,20,20,20c0.4,0,0.7,0,1.1,0l-0.1-2C20.6,38,20.3,38,20,38z" style="fill: rgb(179, 179, 179);"/>
	</g>
</g><g/></svg>