<?xml version="1.0" standalone="no"?>
<svg xmlns="http://www.w3.org/2000/svg" version="1.2" overflow="visible" preserveAspectRatio="none" viewBox="0 -3.002599653379548 45 45" width="48" height="48"><g><g xmlns:default="http://www.w3.org/2000/svg">
	<g>
		<path d="M14,5h30c0.6,0,1-0.4,1-1c0-0.6-0.4-1-1-1H14c-0.6,0-1,0.4-1,1C13,4.6,13.4,5,14,5z M6,0H3C1.3,0,0,1.3,0,3v3    c0,1.7,1.3,3,3,3h3c1.7,0,3-1.3,3-3V3C9,1.3,7.7,0,6,0z M7,6c0,0.6-0.4,1-1,1H3C2.4,7,2,6.6,2,6V3c0-0.6,0.4-1,1-1h3    c0.6,0,1,0.4,1,1V6z M44,18H14c-0.6,0-1,0.4-1,1s0.4,1,1,1h30c0.6,0,1-0.4,1-1S44.6,18,44,18z M6,15H3c-1.7,0-3,1.3-3,3v3    c0,1.7,1.3,3,3,3h3c1.7,0,3-1.3,3-3v-3C9,16.3,7.7,15,6,15z M7,21c0,0.6-0.4,1-1,1H3c-0.6,0-1-0.4-1-1v-3c0-0.6,0.4-1,1-1h3    c0.6,0,1,0.4,1,1V21z M44,33H14c-0.6,0-1,0.4-1,1c0,0.6,0.4,1,1,1h30c0.6,0,1-0.4,1-1C45,33.4,44.6,33,44,33z M6,30H3    c-1.7,0-3,1.3-3,3v3c0,1.7,1.3,3,3,3h3c1.7,0,3-1.3,3-3v-3C9,31.3,7.7,30,6,30z M7,36c0,0.6-0.4,1-1,1H3c-0.6,0-1-0.4-1-1v-3    c0-0.6,0.4-1,1-1h3c0.6,0,1,0.4,1,1V36z" style="fill: rgb(153, 153, 153);"/>
	</g>
</g></g></svg>