<?xml version="1.0" standalone="no"?>
<svg xmlns="http://www.w3.org/2000/svg" version="1.2" overflow="visible" preserveAspectRatio="none" viewBox="-1.5075000000000003 0 45 45" width="48" height="48"><g>
	<g>
		<path d="M20,35h2v-5h-2V35z M20,45h2v-5h-2V45z M20,15h2v-5h-2V15z M20,25h2v-5h-2V25z M20,5h2V0h-2V5z M16.5,21.6L1.5,13    c-0.3-0.2-0.7-0.2-1,0C0.2,13.2,0,13.5,0,13.8v17.3c0,0.4,0.2,0.7,0.5,0.9c0.2,0.1,0.3,0.1,0.5,0.1s0.3,0,0.5-0.1l15-8.7    c0.3-0.2,0.5-0.5,0.5-0.9C17,22.1,16.8,21.8,16.5,21.6z M2,29.4V15.6l12,6.9L2,29.4z M41.5,13c-0.3-0.2-0.7-0.2-1,0l-15,8.7    c-0.3,0.2-0.5,0.5-0.5,0.9c0,0.4,0.2,0.7,0.5,0.9l15,8.7c0.2,0.1,0.3,0.1,0.5,0.1s0.3,0,0.5-0.1c0.3-0.2,0.5-0.5,0.5-0.9V13.8    C42,13.5,41.8,13.2,41.5,13z M40,29.4l-12-6.9l12-6.9V29.4z" style="fill: rgb(179, 179, 179);"/>
	</g>
</g><g/></svg>