<?xml version="1.0" standalone="no"?>
<svg xmlns="http://www.w3.org/2000/svg" version="1.2" overflow="visible" preserveAspectRatio="none" viewBox="0 0 24 24" width="32" height="32"><g><path xmlns:default="http://www.w3.org/2000/svg" id="bolt" d="M16.55,7.89c-0.09-0.1-0.22-0.16-0.35-0.16h-0.12l-4.12,1l1.77-4.74c0.03-0.06,0.05-0.12,0.05-0.19  c0-0.12-0.05-0.23-0.14-0.31c-0.09-0.09-0.21-0.13-0.33-0.13H9.9c-0.1,0-0.21,0.03-0.29,0.09C9.53,3.51,9.47,3.6,9.44,3.69  l-2.09,8.56c-0.04,0.15,0.01,0.31,0.14,0.41c0.09,0.07,0.2,0.11,0.32,0.11h0.12l4.23-1.05l-2.06,8.4c-0.04,0.1-0.04,0.21,0,0.31  c0.06,0.1,0.16,0.17,0.27,0.2h0.15c0.19,0.03,0.39-0.07,0.48-0.24l5.62-12c0.08-0.15,0.05-0.34-0.07-0.46l0,0V7.89z" style="fill: rgb(255, 255, 255);"/></g></svg>