<?xml version="1.0" standalone="no"?>
<svg xmlns="http://www.w3.org/2000/svg" version="1.2" overflow="visible" preserveAspectRatio="none" viewBox="0 0 24 24" width="32" height="32"><g><path xmlns:default="http://www.w3.org/2000/svg" id="chevron-down" d="M20.19,9.48c0.26-0.26,0.26-0.69,0-0.95c0,0,0,0,0,0l-1.72-1.72c-0.25-0.26-0.66-0.27-0.92-0.02  c-0.01,0.01-0.01,0.01-0.02,0.02L12,12.34L6.47,6.81C6.22,6.55,5.81,6.54,5.55,6.79C5.54,6.8,5.54,6.8,5.53,6.81L3.81,8.53  c-0.26,0.26-0.26,0.69,0,0.95c0,0,0,0,0,0l7.73,7.71c0.25,0.26,0.66,0.27,0.92,0.02c0.01-0.01,0.01-0.01,0.02-0.02l7.73-7.71l0,0  L20.19,9.48z" style="fill: rgb(255, 255, 255);"/></g></svg>