<?xml version="1.0" standalone="no"?>
<svg xmlns="http://www.w3.org/2000/svg" version="1.2" overflow="visible" preserveAspectRatio="none" viewBox="0 0 24 24" width="48" height="48"><g><path xmlns:default="http://www.w3.org/2000/svg" id="anchor" d="M12.45,5.92c-0.26,0.25-0.67,0.24-0.92-0.02s-0.24-0.67,0.02-0.92S12.23,4.74,12.47,5  c0.12,0.12,0.18,0.28,0.18,0.45C12.66,5.62,12.58,5.79,12.45,5.92z M21.23,14.92c-0.05-0.08-0.14-0.13-0.24-0.14h-3.67  c-0.16-0.01-0.3,0.09-0.33,0.25c-0.05,0.12-0.03,0.27,0.07,0.36l1,1c-0.53,0.68-1.22,1.23-2,1.6c-0.89,0.45-1.84,0.74-2.83,0.86  v-6.74h2c0.37,0.04,0.71-0.22,0.76-0.6c0-0.02,0-0.04,0-0.06v-1.34c-0.01-0.37-0.3-0.66-0.67-0.67h-2V7.75c0.42-0.24,0.76-0.58,1-1  c0.24-0.41,0.37-0.87,0.36-1.34c0.01-0.71-0.27-1.39-0.78-1.88c-1.04-1.04-2.72-1.04-3.76-0.01c0,0-0.01,0.01-0.01,0.01  C9.62,4.02,9.34,4.7,9.34,5.41c-0.02,0.48,0.1,0.96,0.34,1.38c0.24,0.42,0.58,0.76,1,1v1.7h-2c-0.37,0.01-0.66,0.3-0.67,0.67v1.33  c0.01,0.37,0.3,0.66,0.67,0.67h2v6.74c-1-0.12-1.96-0.42-2.86-0.87c-0.78-0.37-1.47-0.92-2-1.6l1-1c0.15-0.07,0.22-0.25,0.16-0.4  c-0.04-0.13-0.17-0.22-0.31-0.21H2.98c-0.18-0.01-0.32,0.13-0.33,0.31c0,0.01,0,0.01,0,0.02v3.66c-0.01,0.14,0.08,0.27,0.21,0.31  h0.12c0.09,0,0.18-0.03,0.24-0.09l1-1c0.9,1.05,2.04,1.86,3.32,2.36c1.42,0.59,2.94,0.88,4.47,0.87c1.53,0.01,3.05-0.28,4.47-0.87  c1.27-0.51,2.4-1.32,3.29-2.36l1,1c0.07,0.06,0.15,0.09,0.24,0.09h0.12c0.13-0.04,0.22-0.17,0.21-0.31v-3.7  c-0.01-0.1-0.05-0.18-0.13-0.24L21.23,14.92z" style="fill: rgb(179, 179, 179);"/></g></svg>