<?xml version="1.0" standalone="no"?>
<svg xmlns="http://www.w3.org/2000/svg" version="1.2" overflow="visible" preserveAspectRatio="none" viewBox="0 0 26 26" width="72" height="72"><g><defs> </defs> <rect x="0.031" display="none" fill="#FFA400" width="26" height="26" style="fill: rgb(81, 116, 209);"/> <rect id="_x3C_Slice_x3E__81_" x="0.031" display="none" fill="none" width="26" height="26" style="fill: rgb(81, 116, 209);"/> <path fill-rule="evenodd" clip-rule="evenodd" d="M4.764,5.817C4.522,5.873,4.678,5.861,4.48,5.891 C3.629,6.071,4.262,6.238,4.764,5.817z M19.679,6.162c0.06-0.042,0.274-0.249-0.389-0.451c0.039,0.208-0.14,0.187-0.136,0.307 c0.494,0.449,0.698,1.224,1.323,1.383C20.598,6.84,19.917,6.565,19.679,6.162z M4.312,5.658C4.387,6.111,4.73,5.184,4.736,4.851 c-0.131,0.077-0.263,0.15-0.401,0.21c0.319,0.165,0.04,0.335-0.304,0.592C3.325,6.532,4.684,4.979,4.312,5.658z M13,0 C5.82,0,0,5.82,0,13c0,7.178,5.82,13,13,13c7.181,0,13-5.822,13-13C26,5.82,20.181,0,13,0z M13.346,4.359l0.062,0.02 c-0.243,0.312,1.271,1.234,0.182,1.312c-1.016,0.291,0.428-0.266-0.36-0.167C13.643,4.94,12.898,4.93,13.346,4.359z M7.183,5.188 C6.818,4.883,5.67,5.605,6.068,5.434c0.995-0.393,0.066,0.038,0.301,0.505C6.158,6.38,6.297,5.502,5.77,6.027 C5.391,6.114,4.455,6.976,4.57,6.712C4.538,7.124,3.457,7.611,3.309,8.296c-0.353,0.95-0.087-0.034-0.154-0.404 c-0.51-0.647-1.43,1.089-1.16,1.778c0.461-0.813,0.428-0.085,0.094,0.272c0.338,0.624-0.311,1.439,0.336,1.898 c0.285,0.064,0.852-0.957,0.602,0.107c0.174-0.919,0.477,0.219,0.969-0.037c0.031,0.481,0.332,0.261,0.394,0.841 c0.823-0.061,1.575,1.333,0.593,1.593c0.148-0.04,0.438,0.218,0.773,0.021c0.566,0.453,2.067,0.509,2.106,1.626 c-1.03,0.493-0.253,1.843-1.147,2.328c-1.025-0.152-0.352,1.264-0.781,1.101c0.174,1.021-1.035-0.131-0.57,0.431 c0.857,0.527-0.375,0.422,0.01,0.809c-0.434-0.093,0.271,0.803,0.385,1.132c0.621,1.008-0.531-0.222-0.871-0.559 c-0.324-0.651-1.091-1.895-1.303-2.916c-0.121-1.483-1.268-2.477-1.534-3.926c-0.261-0.806,0.724-2.105,0.192-2.555 c-0.463-0.362-0.273-1.597-0.551-2.245C2.375,6.623,4.552,4.12,7.168,2.636C6.9,2.832,8.707,2.125,8.5,2.294 c-0.058,0.128,1.057-0.481,1.725-0.575c-0.071,0.011-1.742,0.61-1.279,0.528C8.229,2.596,8.873,2.401,9.228,2.221 c-0.71,0.521-1.261,0.377-2.064,0.84C6.352,3.275,6.52,4.113,5.94,4.537C6.281,4.598,7.134,3.66,7.633,3.331 c1.142-0.556-0.577,1.008,0.506,0.333c-0.363,0.34-0.288,0.885-0.514,1.038C7.523,4.676,8.08,4.973,7.183,5.188z M8.959,2.852 C8.842,3.011,8.678,3.348,8.582,3.139C8.448,3.206,8.4,3.49,8.148,3.261c0.147-0.109,0.3-0.362,0.01-0.204 C8.291,2.912,9.467,2.513,9.4,2.36c0.206-0.131,0.186-0.2-0.052-0.116c-0.122-0.042,0.29-0.388,0.837-0.432 c0.078-0.001,0.109,0.052-0.028,0.036c-0.825,0.254-0.473,0.181,0.089,0c-0.213,0.12-0.359,0.158-0.398,0.213 c0.556-0.204-0.029,0.146,0.095,0.124C9.783,2.266,9.967,2.294,9.664,2.41C9.72,2.366,9.166,2.74,9.498,2.627 C9.184,2.933,9.038,2.941,8.959,2.852z M9.447,3.579c0.008-0.487,0.709-0.797,0.627-0.82c0.865-0.406-0.301,0.015,0.379-0.353 c0.255-0.025,0.791-0.836,1.539-0.889c0.82-0.25,0.443,0.017,1.053-0.22l-0.123,0.101c-0.108,0.015,0.027,0.202-0.359,0.49 c-0.042,0.44-0.736,0.236-0.391,0.71c-0.225-0.322-0.559-0.011-0.139,0.022c-0.453,0.348-1.504,0.405-2.004,0.98 C9.701,4.065,9.4,3.922,9.447,3.579z M13.057,5.206c-0.346,0.831-0.682-0.12-0.073-0.274C13.139,5.013,13.2,5.036,13.057,5.206z M11.756,3.541c-0.104-0.377-0.02-0.18,0.584-0.357C12.756,3.482,11.969,3.683,11.756,3.541z M21.211,18.445 c-0.479-0.821,0.577-1.585,0.933-2.274C22.103,16.977,22.001,17.772,21.211,18.445z M23.011,9.046 c-0.52,0.039-0.987,0.162-1.453-0.132c-1.079-1.18,0.199,1.333,0.556,0.307c1.278,0.488-0.02,2.59-0.826,2.373 c-0.454-0.974-1.013-2.047-1.997-2.525c0.756,0.838,1.132,1.87,1.944,2.627c0.054,1.057,1.127-0.383,1.063,0.431 c0.099,1.409-1.589,2.249-1.293,3.662c0.629,1.287-1.213,1.517-1.004,2.669c-0.742,0.827-1.532,1.942-2.863,1.769 c0-0.702-0.354-1.296-0.436-2.014c-0.722-0.916,0.76-1.896-0.159-2.85c-1.061-0.239,0.22-1.701-0.872-1.564 c-0.655-0.656-1.617-0.022-2.556-0.014c-1.18,0.11-2.391-1.449-1.868-2.548c-0.419-1.148,1.32-1.482,1.366-2.491 c0.832-0.693,2.016-0.609,3.145-0.771c-0.081,0.805,0.771,0.814,1.419,1.083c0.358-0.872,1.483,0.14,2.249-0.413 c0.263-1.29-0.747-0.514-1.327-0.923c-0.7-1.026,1.5-0.53,1.271-1.066c-0.855-0.005-0.369-1.05-0.975-0.469 c0.541,0.098-0.098,0.524-0.082,0.035c-0.821-0.237-0.032,0.935-0.446,1.047c-0.633-0.261-0.336,0.302-0.271,0.384 c-0.276,0.594-0.607-0.871-1.383-0.833c-0.77-0.707-0.307,0.319,0.367,0.488c-0.143,0.043,0.08,0.623-0.099,0.374 c-0.554-0.764-1.604-1.272-2.228-0.334c-0.067,0.875-1.845,1.123-1.562,0.099c-0.418-1.056,1.288-0.031,1.132-0.875 c-1.095-0.724,0.298-0.492,0.668-1.172c0.845,0.028,0.037-0.69,0.431-0.898c-0.04,0.778,0.643,0.63,1.187,0.482 c-0.133-0.448,0.327-0.432,0.047-0.803c1.26-0.505-0.961,0.232-0.514-0.868c-0.543-0.375-0.228,0.827,0,0.957 c0.016,0.371-0.299,0.825-0.729,0.052c-0.631,0.413-0.564-0.417-0.604-0.328c-0.07-0.321,0.48-0.336,0.484-0.892 c-0.045-0.355-0.039-0.545,0.218-0.564c0.023,0.051,1.04,0.066,1.4,0.485c-0.987-0.199-0.148,0.165,0.294,0.368 c-0.471-0.373,0.186,0.001-0.199-0.419c0.154,0.032-0.42-0.581,0.167-0.044c-0.322-0.383,0.624-0.27,0.069-0.553 c0.816,0.229,0.334,0.021-0.149-0.188c-1.329-0.791,2.351,1.071,0.847,0.246c0.959,0.209-2.051-0.741-0.679-0.326 c-0.521-0.23-0.014-0.1,0.458,0.047c-0.845-0.262-2.118-0.758-2.069-0.775c0.295,0.021,0.582,0.084,0.863,0.166 c0.869,0.259-0.251-0.061-0.009-0.055c2.979,0.744,5.593,2.746,7.183,5.359c0.37,0.391,1.383,2.975,0.851,1.828 c0.239,0.914,0.272,1.9,0.399,2.834c-0.262-0.293-0.559-1.379-0.812-1.987C23.52,9.761,23.398,9.197,23.011,9.046z" style="fill: rgb(81, 116, 209);"/> </g></svg>