<?xml version="1.0" standalone="no"?>
<svg xmlns="http://www.w3.org/2000/svg" version="1.2" overflow="visible" preserveAspectRatio="none" viewBox="-1.0045000000000002 0 49 49" width="32" height="32"><g>
	<g>
		<path d="M47,27.7c0-8.4-8.1-15-18.4-15c-8.9,0-15.2-3.4-15.2-3.4l-1.5-0.8v8c-1.8,0.8-6.6,3.4-7.2,8.3H0L0,31l1,0    c1,0,3.9,0.3,4.6,1.8L5.7,33C7,35.7,11,43.8,25.1,43.8C40.2,43.8,47,35.7,47,27.7z M25.1,41.8c-12.9,0-16.5-7.3-17.6-9.7l-0.1-0.2    c-1-2.1-3.9-2.7-5.4-2.8v-2.2h5v-1c0-5.2,6.4-7.7,6.4-7.7l0.5-0.2v-6.1c2.5,1.1,7.8,2.9,14.7,2.9c9.2,0,16.4,5.7,16.4,13    C45,36.3,37.2,41.8,25.1,41.8z M32.2,2C35.9,2,39,5.1,39,8.9c0,1.2-0.3,2.4-0.9,3.4l1.7,1C40.5,12,41,10.4,41,8.9    C41,4,37,0,32.2,0c-4.8,0-8.8,3.8-8.8,8.8h2C25.4,4.8,28.5,2,32.2,2z M13.7,20.8c-1.8,0-3.3,1.5-3.3,3.3c0,1.8,1.5,3.3,3.3,3.3    c1.8,0,3.3-1.5,3.3-3.3C17,22.3,15.5,20.8,13.7,20.8z M13.7,25.5c-0.7,0-1.3-0.6-1.3-1.3c0-0.7,0.6-1.3,1.3-1.3    c0.7,0,1.3,0.6,1.3,1.3C15,24.9,14.4,25.5,13.7,25.5z M13.8,46.8c-0.7,0.3-1.5,0.3-2.3,0c-1.5-0.7-2.2-2.4-1.5-4L8.1,42    c-1.1,2.5,0.1,5.5,2.6,6.6c0.6,0.3,1.3,0.4,2,0.4c0.6,0,1.2-0.1,1.8-0.4c1.2-0.5,2.2-1.4,2.7-2.7l-1.8-0.8    C15.1,45.9,14.5,46.5,13.8,46.8z M42.8,42.8c0.7,1.5,0,3.3-1.5,4c-0.7,0.3-1.5,0.3-2.3,0c-0.7-0.3-1.3-0.9-1.6-1.6L35.5,46    c0.5,1.2,1.5,2.2,2.7,2.7c0.6,0.2,1.2,0.4,1.8,0.4c0.7,0,1.3-0.1,2-0.4c2.5-1.1,3.7-4.1,2.6-6.6L42.8,42.8z" style="fill: rgb(255, 255, 255);"/>
	</g>
</g><g/></svg>